<svg xmlns="http://www.w3.org/2000/svg" viewBox="0 0 291.38 181.63"><defs><style>.ab570091-840a-4e3a-95dc-d78f3cdff10d{fill:#00539b;}.fee1b2b6-3b52-49a1-94b6-325d18c0bb53{fill:#231f20;stroke:#231f20;}.e9c1b110-6296-43b5-831c-1d0c9856821a{fill:#e31837;}</style></defs><title>logo</title><g id="b625f8ef-eae5-4a86-a0f0-0d91ef6d73ce" data-name="Layer 2"><g id="b60e5a35-5920-4bd7-8610-c5f7e30a1a94" data-name="Layer 1"><path class="ab570091-840a-4e3a-95dc-d78f3cdff10d" d="M25.51,117.84V27.29H0V4.69H74.38v22.6H48v90.55Z"/><path class="ab570091-840a-4e3a-95dc-d78f3cdff10d" d="M226.65,77.16V97.9c0,14-6.92,20.91-20.9,20.91H193.2c-14,0-20.9-6.92-20.9-20.91V74h22V95.81c0,2.74,1.29,4,4,4h2.09c2.73,0,4-1.28,4-4V82.31c0-3.54-1.13-5.31-3.86-7.24L181.31,60.76c-6.92-5-9-9.65-9-17.68V25.23c0-14,6.92-20.9,20.9-20.9h12.22c14,0,20.91,6.91,20.91,20.9V45.81h-22V27.32c0-2.73-1.29-4-4-4h-1.77c-2.73,0-4,1.29-4,4V37.93c0,3.54,1.13,5.31,3.86,7.24l19.29,14.31C224.56,64.46,226.65,68.8,226.65,77.16Z"/><path class="ab570091-840a-4e3a-95dc-d78f3cdff10d" d="M269.86,118.81H255.39c-14,0-20.91-6.92-20.91-20.91V25.23c0-14,6.92-20.9,20.91-20.9h14.47c14,0,20.9,6.91,20.9,20.9V97.9C290.76,111.89,283.85,118.81,269.86,118.81Zm-5.63-95.19H261c-2.73,0-4,1.29-4,4V95.49c0,2.73,1.29,4,4,4h3.22c2.73,0,4-1.29,4-4V27.64C268.25,24.91,267,23.62,264.23,23.62Z"/><path class="fee1b2b6-3b52-49a1-94b6-325d18c0bb53" d="M14.93,138H9.29l.71-3.32H25l-.7,3.32H18.9l-3.07,14.64h-4Z"/><path class="fee1b2b6-3b52-49a1-94b6-325d18c0bb53" d="M28.35,134.63h13.7L41.37,138H31.62l-.81,3.85h9l-.65,3.07h-9l-.93,4.4h9.91l-.71,3.32H24.58Z"/><path class="fee1b2b6-3b52-49a1-94b6-325d18c0bb53" d="M67.21,134.63h4.05l3,18H70.33l-.58-4H63l-2.26,4H56.6Zm-2.62,11H69.4l-.88-7.14h0Z"/><path class="fee1b2b6-3b52-49a1-94b6-325d18c0bb53" d="M80.75,146.63c-.12,2.54,1.61,3.32,3.87,3.32,1.59,0,3.42-.76,3.42-2.54s-2.31-2.11-4.55-2.79S79,142.88,79,139.79c0-4,3.64-5.58,7.11-5.58,3.67,0,6.74,1.63,6.74,5.78H89.08c.07-2-1.39-2.72-3.22-2.72-1.51,0-3.15.58-3.15,2.24s3.05,2.24,4.28,2.54c2.81.73,4.8,1.81,4.8,5,0,4.3-3.9,5.94-7.32,5.94-5,0-7.47-2.07-7.47-6.39Z"/><path class="fee1b2b6-3b52-49a1-94b6-325d18c0bb53" d="M111.91,134.63h4l3,18H115l-.58-4h-6.71l-2.26,4H101.3Zm-2.61,11h4.8l-.88-7.14h0Z"/><path class="fee1b2b6-3b52-49a1-94b6-325d18c0bb53" d="M125.46,146.63c-.13,2.54,1.61,3.32,3.87,3.32,1.58,0,3.42-.76,3.42-2.54s-2.31-2.11-4.55-2.79-4.53-1.74-4.53-4.83c0-4,3.65-5.58,7.12-5.58,3.67,0,6.74,1.63,6.74,5.78h-3.75c.08-2-1.38-2.72-3.22-2.72-1.5,0-3.14.58-3.14,2.24s3,2.24,4.28,2.54c2.81.73,4.8,1.81,4.8,5,0,4.3-3.9,5.94-7.32,5.94-5,0-7.47-2.07-7.47-6.39Z"/><path class="fee1b2b6-3b52-49a1-94b6-325d18c0bb53" d="M143.37,146.63c-.12,2.54,1.61,3.32,3.87,3.32,1.59,0,3.42-.76,3.42-2.54s-2.31-2.11-4.55-2.79-4.53-1.74-4.53-4.83c0-4,3.65-5.58,7.12-5.58,3.67,0,6.74,1.63,6.74,5.78h-3.75c.08-2-1.38-2.72-3.21-2.72-1.51,0-3.15.58-3.15,2.24s3,2.24,4.28,2.54c2.81.73,4.8,1.81,4.8,5,0,4.3-3.9,5.94-7.32,5.94-5,0-7.47-2.07-7.47-6.39Z"/><path class="fee1b2b6-3b52-49a1-94b6-325d18c0bb53" d="M168,134.21c4.85,0,8,2.66,8,7.69,0,5.91-3.52,11.12-9.81,11.12-5,0-8-2.9-8-8C158.18,139.26,161.93,134.21,168,134.21ZM166.2,149.7c3.87,0,5.81-4.13,5.81-7.52,0-2.52-1.11-4.65-4-4.65-4,0-5.88,4.09-5.88,7.54C162.13,147.53,163.33,149.7,166.2,149.7Z"/><path class="fee1b2b6-3b52-49a1-94b6-325d18c0bb53" d="M192.24,140.87a3,3,0,0,0-3.22-3.34c-4.05,0-5.89,4.09-5.89,7.54,0,2.46,1.21,4.63,4.08,4.63a4.38,4.38,0,0,0,4.22-3.57h3.95c-1.61,5-4.33,6.89-8.22,6.89-5,0-8-2.9-8-8,0-5.81,3.75-10.86,9.81-10.86,4.15,0,7.29,2.28,7.19,6.66Z"/><path class="fee1b2b6-3b52-49a1-94b6-325d18c0bb53" d="M201.94,134.63h4l-3.79,18h-4Z"/><path class="fee1b2b6-3b52-49a1-94b6-325d18c0bb53" d="M215.89,134.63h4.05l3,18H219l-.58-4h-6.71l-2.26,4h-4.18Zm-2.61,11h4.8l-.88-7.14h0Z"/><path class="fee1b2b6-3b52-49a1-94b6-325d18c0bb53" d="M231.09,138h-5.63l.7-3.32h15l-.71,3.32h-5.38L232,152.59h-4Z"/><path class="fee1b2b6-3b52-49a1-94b6-325d18c0bb53" d="M244.52,134.63h4l-3.8,18h-4Z"/><path class="fee1b2b6-3b52-49a1-94b6-325d18c0bb53" d="M260.39,134.21c4.85,0,8,2.66,8,7.69,0,5.91-3.52,11.12-9.81,11.12-5,0-8-2.9-8-8C250.58,139.26,254.33,134.21,260.39,134.21ZM258.6,149.7c3.88,0,5.81-4.13,5.81-7.52,0-2.52-1.1-4.65-4-4.65-4,0-5.88,4.09-5.88,7.54C254.53,147.53,255.74,149.7,258.6,149.7Z"/><path class="fee1b2b6-3b52-49a1-94b6-325d18c0bb53" d="M274.41,134.63h4.08l4.88,12.78h.05L286,134.63h3.62l-3.79,18h-3.95L276.93,140h-.05l-2.56,12.6h-3.7Z"/><path class="fee1b2b6-3b52-49a1-94b6-325d18c0bb53" d="M16.49,167.87c3.44,0,5.83,1.69,5.83,5.3,0,4.4-2.73,7.89-7.28,7.89-3.49,0-5.74-1.82-5.74-5.4C9.3,171.43,12,167.87,16.49,167.87Zm-1.28,10.6c2.56,0,3.67-3.15,3.67-5.25,0-1.67-.72-2.76-2.51-2.76-2.52,0-3.63,3.1-3.63,5.2A2.53,2.53,0,0,0,15.21,178.47Z"/><path class="fee1b2b6-3b52-49a1-94b6-325d18c0bb53" d="M26.83,170.51h-2l.49-2.3h2c.68-3.2,1.26-4.91,4.87-4.91a14.24,14.24,0,0,1,2.25.19L33.91,166c-.36,0-.75-.07-1.11-.07-1.69,0-1.67.87-2,2.32h2.44l-.48,2.3H30.26l-2.15,10.21H24.67Z"/><path class="fee1b2b6-3b52-49a1-94b6-325d18c0bb53" d="M45.65,175c-.12,2.44,1.55,3.19,3.73,3.19,1.52,0,3.29-.73,3.29-2.44s-2.23-2-4.38-2.69-4.36-1.67-4.36-4.65c0-3.85,3.51-5.37,6.85-5.37,3.53,0,6.48,1.57,6.48,5.57h-3.6c.07-1.94-1.33-2.62-3.1-2.62-1.45,0-3,.56-3,2.16s2.92,2.15,4.11,2.44c2.71.7,4.62,1.74,4.62,4.84,0,4.14-3.75,5.71-7,5.71-4.77,0-7.19-2-7.19-6.14Z"/><path class="fee1b2b6-3b52-49a1-94b6-325d18c0bb53" d="M62.44,163.44h6.92c3.49,0,6,1.21,6,5s-3.14,6.05-6.72,6.05h-4.7l-1.31,6.19h-3.8Zm2.13,8.13h3.87c1.91,0,3.12-1,3.12-3,0-1.74-1.35-2.16-2.68-2.16H65.64Z"/><path class="fee1b2b6-3b52-49a1-94b6-325d18c0bb53" d="M86.81,163c4.67,0,7.67,2.57,7.67,7.41,0,5.68-3.39,10.69-9.44,10.69-4.84,0-7.67-2.78-7.67-7.65C77.37,167.89,81,163,86.81,163Zm-1.72,14.91c3.73,0,5.59-4,5.59-7.24,0-2.42-1.06-4.48-3.85-4.48-3.89,0-5.66,3.95-5.66,7.26C81.17,175.86,82.33,177.94,85.09,177.94Z"/><path class="fee1b2b6-3b52-49a1-94b6-325d18c0bb53" d="M100,163.44h8.26c3.12-.05,5.15,1.19,5.15,4.53a4.62,4.62,0,0,1-4,4.64v0c1.43.44,1.79,1.7,1.79,3.05,0,.78-.12,1.94-.12,3a6.18,6.18,0,0,0,.24,2h-3.7a5.33,5.33,0,0,1-.17-1.16c0-1.16.2-2.35.2-3.51,0-1.67-1-2.08-2.5-2.08h-3.58l-1.43,6.75h-3.8Zm2.18,7.82h3.51c2,0,3.92-.8,3.92-2.74s-1.3-2.13-2.81-2.13h-3.6Z"/><path class="fee1b2b6-3b52-49a1-94b6-325d18c0bb53" d="M121.7,166.64h-5.42l.68-3.2h14.42l-.68,3.2h-5.18l-3,14.08h-3.82Z"/><path class="fee1b2b6-3b52-49a1-94b6-325d18c0bb53" d="M134.85,175c-.12,2.44,1.55,3.19,3.73,3.19,1.52,0,3.29-.73,3.29-2.44s-2.22-2-4.38-2.69-4.35-1.67-4.35-4.65c0-3.85,3.5-5.37,6.84-5.37,3.54,0,6.49,1.57,6.49,5.57h-3.61c.08-1.94-1.33-2.62-3.09-2.62-1.46,0-3,.56-3,2.16s2.93,2.15,4.11,2.44c2.72.7,4.63,1.74,4.63,4.84,0,4.14-3.75,5.71-7,5.71-4.76,0-7.18-2-7.18-6.14Z"/><path class="fee1b2b6-3b52-49a1-94b6-325d18c0bb53" d="M166.29,163c4.67,0,7.67,2.57,7.67,7.41,0,5.68-3.39,10.69-9.44,10.69-4.84,0-7.67-2.78-7.67-7.65C156.85,167.89,160.45,163,166.29,163Zm-1.72,14.91c3.72,0,5.59-4,5.59-7.24,0-2.42-1.07-4.48-3.85-4.48-3.9,0-5.66,3.95-5.66,7.26C160.65,175.86,161.81,177.94,164.57,177.94Z"/><path class="fee1b2b6-3b52-49a1-94b6-325d18c0bb53" d="M179.51,163.44h12.3l-.7,3.2h-8.47l-.85,4h7.4l-.62,3h-7.39l-1.52,7.14h-3.8Z"/><path class="fee1b2b6-3b52-49a1-94b6-325d18c0bb53" d="M195,163.44h12.29l-.7,3.2h-8.47l-.85,4h7.41l-.63,3H196.7l-1.53,7.14h-3.8Z"/><path class="fee1b2b6-3b52-49a1-94b6-325d18c0bb53" d="M210.54,163.44h3.83l-3.66,17.28h-3.82Z"/><path class="fee1b2b6-3b52-49a1-94b6-325d18c0bb53" d="M228.67,169.44a2.91,2.91,0,0,0-3.09-3.22c-3.9,0-5.67,3.95-5.67,7.26,0,2.38,1.17,4.46,3.92,4.46a4.21,4.21,0,0,0,4.07-3.44h3.8c-1.55,4.82-4.16,6.63-7.91,6.63-4.84,0-7.68-2.78-7.68-7.65,0-5.59,3.61-10.45,9.44-10.45,4,0,7,2.2,6.92,6.41Z"/><path class="fee1b2b6-3b52-49a1-94b6-325d18c0bb53" d="M237.75,163.44h3.82l-3.66,17.28h-3.82Z"/><path class="fee1b2b6-3b52-49a1-94b6-325d18c0bb53" d="M250.91,163.44h3.9l2.87,17.28h-3.77l-.56-3.85h-6.46l-2.18,3.85h-4ZM248.39,174H253l-.84-6.87h0Z"/><path class="fee1b2b6-3b52-49a1-94b6-325d18c0bb53" d="M264,163.44h3.83l-3,14.09h8.35l-.67,3.19H260.34Z"/><path class="fee1b2b6-3b52-49a1-94b6-325d18c0bb53" d="M279.27,175c-.13,2.44,1.54,3.19,3.72,3.19,1.53,0,3.29-.73,3.29-2.44s-2.22-2-4.38-2.69-4.35-1.67-4.35-4.65c0-3.85,3.51-5.37,6.85-5.37,3.53,0,6.48,1.57,6.48,5.57h-3.6c.07-1.94-1.34-2.62-3.1-2.62-1.45,0-3,.56-3,2.16s2.93,2.15,4.12,2.44c2.71.7,4.62,1.74,4.62,4.84,0,4.14-3.75,5.71-7,5.71-4.77,0-7.19-2-7.19-6.14Z"/><path class="e9c1b110-6296-43b5-831c-1d0c9856821a" d="M40.45,155.82c-1.2,2.78-1.92,4-1.73,4.36l.88,6.32,4-8.37c3.1-6.08,4.68-7.95,9.48-14.44L56,140.35l1.87-2.25,2.63-2.9c8.42-10.17,19.68-19.94,31.9-29,2.28-1.7,4-2.59,6.29-4.37h0l3.15-1.81,1.15.69.3.4.8-.53,0,0c3.45,3.25,6.75,6.92,9.8,10.4l6.77,7.83-2.27,2.26,3.4-1,.08.09a2.57,2.57,0,0,0,0,.73l.27,1.83,1.85,0h.13l0,0,.39-.11h0l1-.28.24-.07.51-.14h0c1.53-.42,4.16-1.17,8.75-2.47l1.53-.46v-2.15c0-.45,0-.89.09-1.35l1.25-.35h0l.22-.07-1.32-.67c.17-1.38.42-2.82.67-4.31.66-3.85,1.35-7.83,1-11.94l0-.16a3.81,3.81,0,0,0-.12-.51l0-.07.27-.62-.14-.65a19.81,19.81,0,0,1,.17-6c.17-1.48.35-3,.38-4.56l0-.65-.3-.46-.06-.18a5.6,5.6,0,0,0-.23-.59,21.17,21.17,0,0,0,.38-4.53c6.23-3.44,12.67-7.21,19.67-11.51l8.35-5.16c.91-.1,2.24-.74,2.57-3.55C170,54.93,168.58,46.4,163,45l-.26-.06-19.12.27c-1.08,0-2.19.08-3.32.13l0-1,.82-2.62-.91.39v-.29a58.61,58.61,0,0,1,1.17-11,87.37,87.37,0,0,0,1.35-11.28l.82-.34.11-1.27c.06-.61.12-1.2.2-1.77l1.8-1.16L144,15.1c.15-.95.33-1.86.55-2.73l.75-3.2,3.4-.67L145,5.66l-.27-.17h0L142.21,4v.06L140.1,2.9l-3.17-1.78c-.23-.14-.45-.26-.64-.36l-.78-.44v0a1.79,1.79,0,0,0-2-.05l-1.1.59V2.21L132,3.63a2.22,2.22,0,0,0,0,1l-.45.53h0a56,56,0,0,0-5.09,7,37.15,37.15,0,0,0-5.65,5.44l-.14.18-.1.21c-.36.73-.67,1.32-.94,1.83a13.32,13.32,0,0,0-1.5,3.65l-.34.09-.33.08-.58.15-.4.44c-.64.68-1.35,1.33-2,2a19.83,19.83,0,0,0-3.81,4.22l-.58-.33-.94,2.12a26.48,26.48,0,0,1-4,6.79v0l-.17.22a7.69,7.69,0,0,1-.9.83l-.75.6,0,.72-1.57,2c-1.35,1.72-2.62,3.42-3.87,5.19-4.68.29-8.8.46-12.58.52h-.45l-.42.2a5.83,5.83,0,0,1-2.53.44c-.68,0-1.42-.05-2.2-.11l-.85-.05.41-.57-4.35.18a8.14,8.14,0,0,1-3.62-.64,30.55,30.55,0,0,0-4.45-1.21l-2.28-.45-.11,1.2a3,3,0,0,0-.55.37,6.35,6.35,0,0,0-2.6-.65,4.71,4.71,0,0,0-1.12.14h-.81l-.62.64h0l-.82-1-.07.39-.12-.14L57,47.12h-1a1.87,1.87,0,0,0-1.7.9h-.24l-.14.9h0l0,.34s0,.07,0,.1L52.3,59.59l-.12.85.5.7.26.32A16.79,16.79,0,0,0,54.52,63l.16.13.18.1.35.2v.09l.07-.06c1.28.73,2.58,1.45,3.87,2.17C65.36,69.09,71.79,72.66,77,77a2.54,2.54,0,0,0,.46.35l.15-.21a3.17,3.17,0,0,0,.49.48l-.16.23c-1.6,2.21-3.4,4.71-5.34,7.07a6.18,6.18,0,0,0-1.31,2.46l-.21-.1L70.34,89,68.7,90.89a11,11,0,0,0-1.9,3.57A7.34,7.34,0,0,1,66.1,96l-.45.16-.35.4a8.82,8.82,0,0,0-2.17,3.76l0,.07-.33-.15a12.35,12.35,0,0,0-1.84,3.56,2.62,2.62,0,0,0-.23.81l-.22.15-.67.48-1,4.8a3.51,3.51,0,0,0-.21,1.19l2.21.23,1.86,3.86,1.25-3.5.22.18,1.26-2.27a17.7,17.7,0,0,1,1.78-2.49A17.47,17.47,0,0,0,69.89,103l.53-1.26,1.11.68.72-2.76c0-.14.07-.3.1-.46a1.55,1.55,0,0,1,0-.21.9.9,0,0,1-.29.42l-.24-.27,1.38-.74a.55.55,0,0,1,0,.17,7.07,7.07,0,0,1,1.2-1.82l.77-.73a5.38,5.38,0,0,0,1-1.16,3.67,3.67,0,0,0,1.56-.6l.35-.24.23-.35c.47-.71.94-1.56,1.43-2.47,1.06-1.92,2.36-4.31,3.78-5.35l.38-.28.23-.4c.33-.61.66-1.24,1-1.88a16.43,16.43,0,0,1,2.25,1.89l-.18.3a4.11,4.11,0,0,0,.35.29l0,.17,0-.11a4.59,4.59,0,0,0,1.2.55l0,0a17.7,17.7,0,0,1,3.29,2.86A19.52,19.52,0,0,0,95,91.73a3.59,3.59,0,0,0,.27.47c-1.14.89-2.32,1.79-3.5,2.7a133.55,133.55,0,0,0-10.6,8.7l.16-3.16-4.29,6.76a13.16,13.16,0,0,1-3.5,3.28c-2,1.51-4.35,3.22-4.85,6.2a3.63,3.63,0,0,0-1,.3l-1.07.5-.11,1a10.2,10.2,0,0,1-.68.92l-.2.25-1.08.91a9.78,9.78,0,0,0-2.34,3.51c-.05.12-.11.25-.17.37l-.7.6c-4.94,5.8-.44.27-5.88,7.82-.9.06-12,17.58-12.4,18.47ZM138.81,64.6a31,31,0,0,1,.23-5.39l1.59.06-1.43-1.13,0-.14.26.07.45.1.44-.1a27.79,27.79,0,0,1,5.51-.43c.9,0,1.84,0,2.76-.08v-.14l.14.38a14.68,14.68,0,0,1,1.68-.18l-1,1.76a1.65,1.65,0,0,0-.2.31A16.68,16.68,0,0,1,147.53,61l-.63.46a8.44,8.44,0,0,0-1.25.19l-.79.15-.4.06-.35.21q-2.49,1.5-5,3l-.06,0V65Zm9.08-9.12.05.12-1.47.37a1.73,1.73,0,0,1-.05-.45C146.91,55.52,147.41,55.5,147.89,55.48Zm4.6,5.06a1.86,1.86,0,0,1-.47.14l-.4-.34,1.23-.85a2.11,2.11,0,0,1,.3.71A2.4,2.4,0,0,1,152.49,60.54Zm-1-3h0l1-.06c-.19.28-.34.53-.45.73l0,.06ZM123.91,97.09l-.28.71-1.55-.57,1.38,3-.46-.66a6.86,6.86,0,0,0-4.42-3,4.53,4.53,0,0,0-.91-2.3l-1.18-1.83-.74.33h0c1.88-1.19,3.61-2.23,5.32-3.2l1.25-.71-.08-.54L124.12,87c0,.81,0,1.6,0,2.36A15.76,15.76,0,0,1,124,93l3.73,1.7a1.66,1.66,0,0,1-1.43.61,1.37,1.37,0,0,1,.67-.55l-.18.05a5.39,5.39,0,0,0-1,.33.3.3,0,0,1-.1-.09l0,.11A3.57,3.57,0,0,0,123.91,97.09Zm3.45-52.23.84.25a2.58,2.58,0,0,1,.09.52l-.45.54-.93.07a1.65,1.65,0,0,1-.63-.49l2-.12-.94-.77ZM105.89,81.31l-.56,1a5.17,5.17,0,0,0-1.52-1.28,8,8,0,0,1-.71-.48L101,73.27,99.67,78.5c-.62-2-2.45-2.93-3.78-3.61a7.78,7.78,0,0,1-1.36-.79l-.13-.92L96.23,73l-2-.91L94.08,71l.7-1h0a3,3,0,0,0,.67-.08l.3.31h.93a2.18,2.18,0,0,0,1.22-.36l.62.86,1.67-2.6a12.54,12.54,0,0,0,1.19-2.38,16.06,16.06,0,0,1,1.49-2.9l.76-1.18.49.57.36-.9,1.91-.44.84,0,.14.36.18-.38h.17l.71.23.86-.59.22-.14h0a2.67,2.67,0,0,0,1.15.24,2.49,2.49,0,0,0,.37,0l.49-.05,3.31-2.14.28,1.15a13.73,13.73,0,0,0,5.94-2.21l.92-.53a16.48,16.48,0,0,0,2-.21l-.43.56-.14,0,0,.15,0,0h0l.95,3.23a4.82,4.82,0,0,0,.29.81,29.81,29.81,0,0,0-.23,7.79l.44,0a17,17,0,0,0-.82,5.24c-1,.69-2,1.36-2.91,2a2.76,2.76,0,0,0-1-.39l-4.89-.78,1.88,2.7c-.4.22-.84.49-1.32.82l-.32-.13-1,.88a2,2,0,0,1-.7.35,5.69,5.69,0,0,0-2.37,1.43l-.55.56-.08,0a4.78,4.78,0,0,0-2.4,1.07l-1.48,0ZM78.53,61.5a17.19,17.19,0,0,0,3,.26l-1.44,1.12a13,13,0,0,1-1.45-1.27Zm2.23,1.9-.27-.2,4.58-.31.05.07h1a2.26,2.26,0,0,0,.91-.2l1-.08c-.38.56-.76,1.17-1.17,1.81s-1,1.54-1.49,2.28c-.54-.25-1.09-.46-1.63-.66A12.33,12.33,0,0,0,80.76,63.4Zm45.94-4.78.15.36a4.19,4.19,0,0,1,.7-.11,1.84,1.84,0,0,1-.4.83l-.67.2,0,.11-1.15-.55A1.86,1.86,0,0,1,126.7,58.62ZM116.52,43.17l.37-.16c.76-.34,1.61-.82,2.36-1.25a16.28,16.28,0,0,1,1.49-.8l1-.28.39-.92a4,4,0,0,0,.29-1,6.58,6.58,0,0,0,1-.93l-1.19-1.17V35.5l.52.42h0a1,1,0,0,1,0,.27,1.72,1.72,0,0,1,.1-.44,2.65,2.65,0,0,1,1-.63.59.59,0,0,1-.2,0,1.83,1.83,0,0,1-.78-.19l1,.17,1.66.3a1.82,1.82,0,0,1-1.38.9,2.86,2.86,0,0,0,2.51-1.77,25.39,25.39,0,0,0,.56,4.15,14.28,14.28,0,0,0-1.24,3.54c-.16.61-.33,1.29-.55,2l1.08.32-1.08,1.3-.12.3-.07.19c-3,.24-6.06.5-9.07.76l-.61,0a4.88,4.88,0,0,0,1-1.23l1.45-2.46Zm4.33-7.77a1.84,1.84,0,0,1,1.23,1.21Zm-59.7,76.1,1.3.13A1.73,1.73,0,0,1,61.15,111.5ZM101.88,100a1.79,1.79,0,0,1,.24,1l-1.35-1.34-.19.55-.1-.22c.09-.11.19-.23.29-.33l.37.13.51-.93,1,1.31A1.9,1.9,0,0,1,101.88,100Z"/><polygon class="e9c1b110-6296-43b5-831c-1d0c9856821a" points="58.06 153.19 52.44 153.19 43.06 133.91 48.68 133.91 58.06 153.19"/></g></g></svg>